<svg width="500" height="143" viewBox="0 0 500 143" fill="none" xmlns="http://www.w3.org/2000/svg">
<path d="M247.737 53.8421C247.737 48.6228 249.023 44 251.595 39.9737C254.242 35.8728 258.025 32.7039 262.941 30.4671C267.858 28.1557 273.645 27 280.301 27C288.773 27 293.579 27 299.743 27C307.762 27 304.47 27 310.38 27V41.875C306.834 41.875 300.519 41.875 297.379 41.875C294.238 41.875 285.445 41.875 280.755 41.875C275.687 41.875 271.867 42.8443 269.295 44.7829C266.799 46.6469 265.551 49.4057 265.551 53.0592C265.551 56.5636 266.875 59.2478 269.522 61.1118C272.17 62.9758 276.822 64.5044 283.478 65.6973C294.144 67.5614 301.897 70.8048 306.738 75.4276C311.579 80.0504 314 86.4627 314 94.6644C314 100.033 312.525 104.879 309.575 109.204C306.7 113.454 302.616 116.772 297.321 119.158C292.101 121.544 286.164 122.737 279.507 122.737C270.279 122.737 262.601 120.873 256.474 117.145C250.347 113.417 244.193 104.068 243.011 94.7483L261.205 94.7483C262.566 99.0729 263.454 101.352 267.009 103.589C270.564 105.826 273.947 107.862 279.394 107.862C284.84 107.862 288.962 106.781 291.761 104.618C294.635 102.382 296.073 99.2126 296.073 95.1118C296.073 91.2346 294.56 88.1776 291.534 85.9407C288.584 83.7039 283.44 81.9144 276.103 80.5723C266.421 78.8574 259.273 75.8004 254.658 71.4013C250.044 67.0022 247.737 61.1491 247.737 53.8421Z" fill="black"/>
<path d="M231.276 28.4539V121.171H213.462C213.462 121.171 213.462 100.396 213.462 94.5713C213.462 88.746 203.489 79.9012 190.288 79.9012C177.086 79.9012 180.317 79.9012 172.275 79.9012V121.171H154.461V28.4539H172.275V65.2499C172.275 65.2499 172.287 65.2499 190.288 65.2499C208.289 65.2499 213.462 73.6008 213.462 73.6008V28.4539H231.276Z" fill="black"/>
<path d="M112.465 84.4867V121.171H94.6508V84.5986L62.7675 28.4539H82.8506L104.009 68.9408L125.059 28.4539H144.348L112.465 84.4867Z" fill="black"/>
<path d="M59.8146 105.5V121.171C59.8146 121.171 68.9523 121.171 42.2261 121.171C15.5 121.171 0.000152141 106.5 0.000152141 83C0.000152141 59.5 0.000152141 28.4539 0.000152141 28.4539H17.814C17.814 28.4539 17.8139 26 17.814 60C17.8141 94 17.8139 105.5 50.9999 105.5C56.8044 105.5 59.8146 105.5 59.8146 105.5Z" fill="black"/>
<path d="M481.845 0L499.999 12.1029L453.914 73.8279L436.459 61.9425L481.845 0Z" fill="black"/>
<path d="M419.264 13.3131H442.826L442.826 64.7505L494.263 64.7505L494.263 87.1409H444.874C444.874 87.1409 455.011 87.1409 444.036 87.1409C419.264 87.1409 419.264 68.9866 419.264 44.7807C419.265 20.5748 419.264 13.3131 419.264 13.3131Z" fill="black"/>
<path d="M419.75 92.2148C419.749 92.9289 425.395 95.9056 429.086 97.2082C432.777 98.5108 441.244 98.9999 441.244 98.9999V142.583H419.75C419.75 142.583 419.759 88.7291 419.75 92.2148Z" fill="#1E9BDE"/>
<path d="M362 65.5657H408.678C408.678 65.5657 408.737 70.6409 410.227 76.4584C411.717 82.2758 414.974 87.351 414.974 87.351H362V65.5657Z" fill="#1E9BDE"/>
</svg>
